
<svg xmlns="http://www.w3.org/2000/svg" version="1.1" xmlns:xlink="http://www.w3.org/1999/xlink" preserveAspectRatio="none" x="0px" y="0px" width="1280px" height="720px" viewBox="0 0 1280 720">
<defs>
<image id="maxresdefault_jpg" x="0" y="0" width="1280" height="720" xlink:href="./изображения/maxresdefault_jpg.jpg"/>

<image id="pngwing_com__3__png" x="0" y="0" width="960" height="900" xlink:href="./изображения/pngwing_com__3__png.png"/>

<image id="pngwing_com__2__png________" x="0" y="0" width="1082" height="988" xlink:href="./изображения/pngwing_com__2__png________.png"/>

<image id="pngwing_com__8__png" x="0" y="0" width="750" height="817" xlink:href="./изображения/pngwing_com__8__png.png"/>
</defs>

<g transform="matrix( 1.04156494140625, 0, 0, 1.04156494140625, -27,-15) ">
<use xlink:href="#maxresdefault_jpg"/>
</g>

<g transform="matrix( 0.6636505126953125, 0, 0, 0.6636505126953125, 1052.8,590.1) ">
<g transform="matrix( 0.32489013671875, 0, 0, 0.32489013671875, -155.95,-146.2) ">
<use xlink:href="#pngwing_com__3__png"/>
</g>
</g>

<g transform="matrix( 1, 0, 0, 1, 210.5,613.1) ">
<g transform="matrix( 0.19091796875, 0, 0, 0.198577880859375, -103.3,-98.1) ">
<use xlink:href="#pngwing_com__2__png________"/>
</g>
</g>

<g transform="matrix( 1, 0, 0, 1, 85.15,180.95) ">
<g transform="matrix( 0.4429779052734375, 0, 0, 0.4429779052734375, -166.1,-180.95) ">
<use xlink:href="#pngwing_com__8__png"/>
</g>
</g>
</svg>
